<svg width="32" height="32" viewBox="0 0 32 32" fill="none" xmlns="http://www.w3.org/2000/svg">
  <rect width="32" height="32" rx="12" fill="white" />
  <path d="M27.7098 8.74838C25.4391 7.02769 21.9439 6 18.3595 6C13.9272 6 10.3152 7.54744 8.45144 10.2459C7.57601 11.5125 7.09169 13.014 7.01163 14.7058C6.94076 16.2126 7.19407 17.8794 7.76369 19.6723C9.70882 13.8396 15.1426 9.27338 21.4071 9.27338C21.4071 9.27338 15.5455 10.8156 11.86 15.5944C11.0191 16.678 10.3441 17.8807 9.85713 19.1631C8.81624 21.6419 8.28078 24.3036 8.28213 26.9921H10.9071C10.9071 26.9921 10.5081 24.4852 11.2011 21.603C12.226 21.7492 13.2595 21.8269 14.2947 21.8353C16.7084 21.8353 18.4238 21.3129 19.6956 20.1921C20.8349 19.188 21.4636 17.8374 22.129 16.4094C23.1449 14.2268 24.2959 11.754 27.6389 9.84431C27.7332 9.79051 27.8127 9.71415 27.8702 9.62208C27.9278 9.53 27.9616 9.42509 27.9686 9.31673C27.9756 9.20838 27.9557 9.09998 27.9105 9.00124C27.8653 8.90251 27.7963 8.81653 27.7098 8.751V8.74838Z" fill="#048621" />
</svg>
  